<svg xmlns="http://www.w3.org/2000/svg" version="1.1" xmlns:xlink="http://www.w3.org/1999/xlink" xmlns:svgjs="http://svgjs.dev/svgjs" width="1920" height="1080" preserveAspectRatio="none" viewBox="0 0 1920 1080">
    <g mask="url(&quot;#SvgjsMask4640&quot;)" fill="none">
        <rect width="1920" height="1080" x="0" y="0" fill="url(&quot;#SvgjsLinearGradient4641&quot;)"></rect>
        <path d="M93.49 375.4L172.3 420.9L172.3 511.9L93.49 557.4L14.68 511.9L14.68 420.9zM93.49 648.4L172.3 693.9L172.3 784.9L93.49 830.4L14.68 784.9L14.68 693.9zM14.68 1057.9L93.49 1103.4L93.49 1194.4L14.68 1239.9L-64.13 1194.4L-64.13 1103.4zM251.11 102.4L329.92 147.9L329.92 238.9L251.11 284.4L172.3 238.9L172.3 147.9zM172.3 511.9L251.11 557.4L251.11 648.4L172.3 693.9L93.49 648.4L93.49 557.4zM172.3 784.9L251.11 830.4L251.11 921.4L172.3 966.9L93.49 921.4L93.49 830.4zM329.92 511.9L408.73 557.4L408.73 648.4L329.92 693.9L251.11 648.4L251.11 557.4zM408.73 921.4L487.54 966.9L487.54 1057.9L408.73 1103.4L329.92 1057.9L329.92 966.9zM329.92 1057.9L408.73 1103.4L408.73 1194.4L329.92 1239.9L251.11 1194.4L251.11 1103.4zM487.54 238.9L566.35 284.4L566.35 375.4L487.54 420.9L408.73 375.4L408.73 284.4zM487.54 511.9L566.35 557.4L566.35 648.4L487.54 693.9L408.73 648.4L408.73 557.4zM566.35 921.4L645.16 966.9L645.16 1057.9L566.35 1103.4L487.54 1057.9L487.54 966.9zM487.54 1057.9L566.35 1103.4L566.35 1194.4L487.54 1239.9L408.73 1194.4L408.73 1103.4zM645.16 784.9L723.97 830.4L723.97 921.4L645.16 966.9L566.35 921.4L566.35 830.4zM802.79 784.9L881.6 830.4L881.6 921.4L802.79 966.9L723.97 921.4L723.97 830.4zM881.6 921.4L960.41 966.9L960.41 1057.9L881.6 1103.4L802.79 1057.9L802.79 966.9zM960.41 -34.1L1039.22 11.4L1039.22 102.4L960.41 147.9L881.6 102.4L881.6 11.4zM1039.22 648.4L1118.03 693.9L1118.03 784.9L1039.22 830.4L960.41 784.9L960.41 693.9zM960.41 784.9L1039.22 830.4L1039.22 921.4L960.41 966.9L881.6 921.4L881.6 830.4zM1196.84 102.4L1275.65 147.9L1275.65 238.9L1196.84 284.4L1118.03 238.9L1118.03 147.9zM1118.03 238.9L1196.84 284.4L1196.84 375.4L1118.03 420.9L1039.22 375.4L1039.22 284.4zM1118.03 511.9L1196.84 557.4L1196.84 648.4L1118.03 693.9L1039.22 648.4L1039.22 557.4zM1196.84 648.4L1275.65 693.9L1275.65 784.9L1196.84 830.4L1118.03 784.9L1118.03 693.9zM1275.65 511.9L1354.46 557.4L1354.46 648.4L1275.65 693.9L1196.84 648.4L1196.84 557.4zM1354.46 648.4L1433.27 693.9L1433.27 784.9L1354.46 830.4L1275.65 784.9L1275.65 693.9zM1275.65 784.9L1354.46 830.4L1354.46 921.4L1275.65 966.9L1196.84 921.4L1196.84 830.4zM1354.46 921.4L1433.27 966.9L1433.27 1057.9L1354.46 1103.4L1275.65 1057.9L1275.65 966.9zM1275.65 1057.9L1354.46 1103.4L1354.46 1194.4L1275.65 1239.9L1196.84 1194.4L1196.84 1103.4zM1433.27 238.9L1512.08 284.4L1512.08 375.4L1433.27 420.9L1354.46 375.4L1354.46 284.4zM1512.08 648.4L1590.89 693.9L1590.89 784.9L1512.08 830.4L1433.27 784.9L1433.27 693.9zM1512.08 921.4L1590.89 966.9L1590.89 1057.9L1512.08 1103.4L1433.27 1057.9L1433.27 966.9zM1669.7 102.4L1748.51 147.9L1748.51 238.9L1669.7 284.4L1590.89 238.9L1590.89 147.9zM1590.89 1057.9L1669.7 1103.4L1669.7 1194.4L1590.89 1239.9L1512.08 1194.4L1512.08 1103.4zM1748.51 -34.1L1827.32 11.4L1827.32 102.4L1748.51 147.9L1669.7 102.4L1669.7 11.4zM1827.32 102.4L1906.13 147.9L1906.13 238.9L1827.32 284.4L1748.51 238.9L1748.51 147.9zM1984.94 102.4L2063.75 147.9L2063.75 238.9L1984.94 284.4L1906.13 238.9L1906.13 147.9zM1984.94 375.4L2063.75 420.9L2063.75 511.9L1984.94 557.4L1906.13 511.9L1906.13 420.9zM1906.13 1057.9L1984.94 1103.4L1984.94 1194.4L1906.13 1239.9L1827.32 1194.4L1827.32 1103.4z" stroke="url(&quot;#SvgjsLinearGradient4642&quot;)" stroke-width="2"></path>
        <path d="M84.39 375.4 a9.1 9.1 0 1 0 18.2 0 a9.1 9.1 0 1 0 -18.2 0zM163.2 420.9 a9.1 9.1 0 1 0 18.2 0 a9.1 9.1 0 1 0 -18.2 0zM163.2 511.9 a9.1 9.1 0 1 0 18.2 0 a9.1 9.1 0 1 0 -18.2 0zM84.39 557.4 a9.1 9.1 0 1 0 18.2 0 a9.1 9.1 0 1 0 -18.2 0zM5.58 511.9 a9.1 9.1 0 1 0 18.2 0 a9.1 9.1 0 1 0 -18.2 0zM5.58 420.9 a9.1 9.1 0 1 0 18.2 0 a9.1 9.1 0 1 0 -18.2 0zM84.39 648.4 a9.1 9.1 0 1 0 18.2 0 a9.1 9.1 0 1 0 -18.2 0zM163.2 693.9 a9.1 9.1 0 1 0 18.2 0 a9.1 9.1 0 1 0 -18.2 0zM163.2 784.9 a9.1 9.1 0 1 0 18.2 0 a9.1 9.1 0 1 0 -18.2 0zM84.39 830.4 a9.1 9.1 0 1 0 18.2 0 a9.1 9.1 0 1 0 -18.2 0zM5.58 784.9 a9.1 9.1 0 1 0 18.2 0 a9.1 9.1 0 1 0 -18.2 0zM5.58 693.9 a9.1 9.1 0 1 0 18.2 0 a9.1 9.1 0 1 0 -18.2 0zM5.58 1057.9 a9.1 9.1 0 1 0 18.2 0 a9.1 9.1 0 1 0 -18.2 0zM84.39 1103.4 a9.1 9.1 0 1 0 18.2 0 a9.1 9.1 0 1 0 -18.2 0zM84.39 1194.4 a9.1 9.1 0 1 0 18.2 0 a9.1 9.1 0 1 0 -18.2 0zM5.58 1239.9 a9.1 9.1 0 1 0 18.2 0 a9.1 9.1 0 1 0 -18.2 0zM-73.23 1194.4 a9.1 9.1 0 1 0 18.2 0 a9.1 9.1 0 1 0 -18.2 0zM-73.23 1103.4 a9.1 9.1 0 1 0 18.2 0 a9.1 9.1 0 1 0 -18.2 0zM242.01 102.4 a9.1 9.1 0 1 0 18.2 0 a9.1 9.1 0 1 0 -18.2 0zM320.82 147.9 a9.1 9.1 0 1 0 18.2 0 a9.1 9.1 0 1 0 -18.2 0zM320.82 238.9 a9.1 9.1 0 1 0 18.2 0 a9.1 9.1 0 1 0 -18.2 0zM242.01 284.4 a9.1 9.1 0 1 0 18.2 0 a9.1 9.1 0 1 0 -18.2 0zM163.2 238.9 a9.1 9.1 0 1 0 18.2 0 a9.1 9.1 0 1 0 -18.2 0zM163.2 147.9 a9.1 9.1 0 1 0 18.2 0 a9.1 9.1 0 1 0 -18.2 0zM242.01 557.4 a9.1 9.1 0 1 0 18.2 0 a9.1 9.1 0 1 0 -18.2 0zM242.01 648.4 a9.1 9.1 0 1 0 18.2 0 a9.1 9.1 0 1 0 -18.2 0zM242.01 830.4 a9.1 9.1 0 1 0 18.2 0 a9.1 9.1 0 1 0 -18.2 0zM242.01 921.4 a9.1 9.1 0 1 0 18.2 0 a9.1 9.1 0 1 0 -18.2 0zM163.2 966.9 a9.1 9.1 0 1 0 18.2 0 a9.1 9.1 0 1 0 -18.2 0zM84.39 921.4 a9.1 9.1 0 1 0 18.2 0 a9.1 9.1 0 1 0 -18.2 0zM320.82 511.9 a9.1 9.1 0 1 0 18.2 0 a9.1 9.1 0 1 0 -18.2 0zM399.63 557.4 a9.1 9.1 0 1 0 18.2 0 a9.1 9.1 0 1 0 -18.2 0zM399.63 648.4 a9.1 9.1 0 1 0 18.2 0 a9.1 9.1 0 1 0 -18.2 0zM320.82 693.9 a9.1 9.1 0 1 0 18.2 0 a9.1 9.1 0 1 0 -18.2 0zM399.63 921.4 a9.1 9.1 0 1 0 18.2 0 a9.1 9.1 0 1 0 -18.2 0zM478.44 966.9 a9.1 9.1 0 1 0 18.2 0 a9.1 9.1 0 1 0 -18.2 0zM478.44 1057.9 a9.1 9.1 0 1 0 18.2 0 a9.1 9.1 0 1 0 -18.2 0zM399.63 1103.4 a9.1 9.1 0 1 0 18.2 0 a9.1 9.1 0 1 0 -18.2 0zM320.82 1057.9 a9.1 9.1 0 1 0 18.2 0 a9.1 9.1 0 1 0 -18.2 0zM320.82 966.9 a9.1 9.1 0 1 0 18.2 0 a9.1 9.1 0 1 0 -18.2 0zM399.63 1194.4 a9.1 9.1 0 1 0 18.2 0 a9.1 9.1 0 1 0 -18.2 0zM320.82 1239.9 a9.1 9.1 0 1 0 18.2 0 a9.1 9.1 0 1 0 -18.2 0zM242.01 1194.4 a9.1 9.1 0 1 0 18.2 0 a9.1 9.1 0 1 0 -18.2 0zM242.01 1103.4 a9.1 9.1 0 1 0 18.2 0 a9.1 9.1 0 1 0 -18.2 0zM478.44 238.9 a9.1 9.1 0 1 0 18.2 0 a9.1 9.1 0 1 0 -18.2 0zM557.25 284.4 a9.1 9.1 0 1 0 18.2 0 a9.1 9.1 0 1 0 -18.2 0zM557.25 375.4 a9.1 9.1 0 1 0 18.2 0 a9.1 9.1 0 1 0 -18.2 0zM478.44 420.9 a9.1 9.1 0 1 0 18.2 0 a9.1 9.1 0 1 0 -18.2 0zM399.63 375.4 a9.1 9.1 0 1 0 18.2 0 a9.1 9.1 0 1 0 -18.2 0zM399.63 284.4 a9.1 9.1 0 1 0 18.2 0 a9.1 9.1 0 1 0 -18.2 0zM478.44 511.9 a9.1 9.1 0 1 0 18.2 0 a9.1 9.1 0 1 0 -18.2 0zM557.25 557.4 a9.1 9.1 0 1 0 18.2 0 a9.1 9.1 0 1 0 -18.2 0zM557.25 648.4 a9.1 9.1 0 1 0 18.2 0 a9.1 9.1 0 1 0 -18.2 0zM478.44 693.9 a9.1 9.1 0 1 0 18.2 0 a9.1 9.1 0 1 0 -18.2 0zM557.25 921.4 a9.1 9.1 0 1 0 18.2 0 a9.1 9.1 0 1 0 -18.2 0zM636.06 966.9 a9.1 9.1 0 1 0 18.2 0 a9.1 9.1 0 1 0 -18.2 0zM636.06 1057.9 a9.1 9.1 0 1 0 18.2 0 a9.1 9.1 0 1 0 -18.2 0zM557.25 1103.4 a9.1 9.1 0 1 0 18.2 0 a9.1 9.1 0 1 0 -18.2 0zM557.25 1194.4 a9.1 9.1 0 1 0 18.2 0 a9.1 9.1 0 1 0 -18.2 0zM478.44 1239.9 a9.1 9.1 0 1 0 18.2 0 a9.1 9.1 0 1 0 -18.2 0zM636.06 784.9 a9.1 9.1 0 1 0 18.2 0 a9.1 9.1 0 1 0 -18.2 0zM714.87 830.4 a9.1 9.1 0 1 0 18.2 0 a9.1 9.1 0 1 0 -18.2 0zM714.87 921.4 a9.1 9.1 0 1 0 18.2 0 a9.1 9.1 0 1 0 -18.2 0zM557.25 830.4 a9.1 9.1 0 1 0 18.2 0 a9.1 9.1 0 1 0 -18.2 0zM793.69 784.9 a9.1 9.1 0 1 0 18.2 0 a9.1 9.1 0 1 0 -18.2 0zM872.5 830.4 a9.1 9.1 0 1 0 18.2 0 a9.1 9.1 0 1 0 -18.2 0zM872.5 921.4 a9.1 9.1 0 1 0 18.2 0 a9.1 9.1 0 1 0 -18.2 0zM793.69 966.9 a9.1 9.1 0 1 0 18.2 0 a9.1 9.1 0 1 0 -18.2 0zM951.31 966.9 a9.1 9.1 0 1 0 18.2 0 a9.1 9.1 0 1 0 -18.2 0zM951.31 1057.9 a9.1 9.1 0 1 0 18.2 0 a9.1 9.1 0 1 0 -18.2 0zM872.5 1103.4 a9.1 9.1 0 1 0 18.2 0 a9.1 9.1 0 1 0 -18.2 0zM793.69 1057.9 a9.1 9.1 0 1 0 18.2 0 a9.1 9.1 0 1 0 -18.2 0zM951.31 -34.1 a9.1 9.1 0 1 0 18.2 0 a9.1 9.1 0 1 0 -18.2 0zM1030.12 11.4 a9.1 9.1 0 1 0 18.2 0 a9.1 9.1 0 1 0 -18.2 0zM1030.12 102.4 a9.1 9.1 0 1 0 18.2 0 a9.1 9.1 0 1 0 -18.2 0zM951.31 147.9 a9.1 9.1 0 1 0 18.2 0 a9.1 9.1 0 1 0 -18.2 0zM872.5 102.4 a9.1 9.1 0 1 0 18.2 0 a9.1 9.1 0 1 0 -18.2 0zM872.5 11.4 a9.1 9.1 0 1 0 18.2 0 a9.1 9.1 0 1 0 -18.2 0zM1030.12 648.4 a9.1 9.1 0 1 0 18.2 0 a9.1 9.1 0 1 0 -18.2 0zM1108.93 693.9 a9.1 9.1 0 1 0 18.2 0 a9.1 9.1 0 1 0 -18.2 0zM1108.93 784.9 a9.1 9.1 0 1 0 18.2 0 a9.1 9.1 0 1 0 -18.2 0zM1030.12 830.4 a9.1 9.1 0 1 0 18.2 0 a9.1 9.1 0 1 0 -18.2 0zM951.31 784.9 a9.1 9.1 0 1 0 18.2 0 a9.1 9.1 0 1 0 -18.2 0zM951.31 693.9 a9.1 9.1 0 1 0 18.2 0 a9.1 9.1 0 1 0 -18.2 0zM1030.12 921.4 a9.1 9.1 0 1 0 18.2 0 a9.1 9.1 0 1 0 -18.2 0zM1187.74 102.4 a9.1 9.1 0 1 0 18.2 0 a9.1 9.1 0 1 0 -18.2 0zM1266.55 147.9 a9.1 9.1 0 1 0 18.2 0 a9.1 9.1 0 1 0 -18.2 0zM1266.55 238.9 a9.1 9.1 0 1 0 18.2 0 a9.1 9.1 0 1 0 -18.2 0zM1187.74 284.4 a9.1 9.1 0 1 0 18.2 0 a9.1 9.1 0 1 0 -18.2 0zM1108.93 238.9 a9.1 9.1 0 1 0 18.2 0 a9.1 9.1 0 1 0 -18.2 0zM1108.93 147.9 a9.1 9.1 0 1 0 18.2 0 a9.1 9.1 0 1 0 -18.2 0zM1187.74 375.4 a9.1 9.1 0 1 0 18.2 0 a9.1 9.1 0 1 0 -18.2 0zM1108.93 420.9 a9.1 9.1 0 1 0 18.2 0 a9.1 9.1 0 1 0 -18.2 0zM1030.12 375.4 a9.1 9.1 0 1 0 18.2 0 a9.1 9.1 0 1 0 -18.2 0zM1030.12 284.4 a9.1 9.1 0 1 0 18.2 0 a9.1 9.1 0 1 0 -18.2 0zM1108.93 511.9 a9.1 9.1 0 1 0 18.2 0 a9.1 9.1 0 1 0 -18.2 0zM1187.74 557.4 a9.1 9.1 0 1 0 18.2 0 a9.1 9.1 0 1 0 -18.2 0zM1187.74 648.4 a9.1 9.1 0 1 0 18.2 0 a9.1 9.1 0 1 0 -18.2 0zM1030.12 557.4 a9.1 9.1 0 1 0 18.2 0 a9.1 9.1 0 1 0 -18.2 0zM1266.55 693.9 a9.1 9.1 0 1 0 18.2 0 a9.1 9.1 0 1 0 -18.2 0zM1266.55 784.9 a9.1 9.1 0 1 0 18.2 0 a9.1 9.1 0 1 0 -18.2 0zM1187.74 830.4 a9.1 9.1 0 1 0 18.2 0 a9.1 9.1 0 1 0 -18.2 0zM1266.55 511.9 a9.1 9.1 0 1 0 18.2 0 a9.1 9.1 0 1 0 -18.2 0zM1345.36 557.4 a9.1 9.1 0 1 0 18.2 0 a9.1 9.1 0 1 0 -18.2 0zM1345.36 648.4 a9.1 9.1 0 1 0 18.2 0 a9.1 9.1 0 1 0 -18.2 0zM1424.17 693.9 a9.1 9.1 0 1 0 18.2 0 a9.1 9.1 0 1 0 -18.2 0zM1424.17 784.9 a9.1 9.1 0 1 0 18.2 0 a9.1 9.1 0 1 0 -18.2 0zM1345.36 830.4 a9.1 9.1 0 1 0 18.2 0 a9.1 9.1 0 1 0 -18.2 0zM1345.36 921.4 a9.1 9.1 0 1 0 18.2 0 a9.1 9.1 0 1 0 -18.2 0zM1266.55 966.9 a9.1 9.1 0 1 0 18.2 0 a9.1 9.1 0 1 0 -18.2 0zM1187.74 921.4 a9.1 9.1 0 1 0 18.2 0 a9.1 9.1 0 1 0 -18.2 0zM1424.17 966.9 a9.1 9.1 0 1 0 18.2 0 a9.1 9.1 0 1 0 -18.2 0zM1424.17 1057.9 a9.1 9.1 0 1 0 18.2 0 a9.1 9.1 0 1 0 -18.2 0zM1345.36 1103.4 a9.1 9.1 0 1 0 18.2 0 a9.1 9.1 0 1 0 -18.2 0zM1266.55 1057.9 a9.1 9.1 0 1 0 18.2 0 a9.1 9.1 0 1 0 -18.2 0zM1345.36 1194.4 a9.1 9.1 0 1 0 18.2 0 a9.1 9.1 0 1 0 -18.2 0zM1266.55 1239.9 a9.1 9.1 0 1 0 18.2 0 a9.1 9.1 0 1 0 -18.2 0zM1187.74 1194.4 a9.1 9.1 0 1 0 18.2 0 a9.1 9.1 0 1 0 -18.2 0zM1187.74 1103.4 a9.1 9.1 0 1 0 18.2 0 a9.1 9.1 0 1 0 -18.2 0zM1424.17 238.9 a9.1 9.1 0 1 0 18.2 0 a9.1 9.1 0 1 0 -18.2 0zM1502.98 284.4 a9.1 9.1 0 1 0 18.2 0 a9.1 9.1 0 1 0 -18.2 0zM1502.98 375.4 a9.1 9.1 0 1 0 18.2 0 a9.1 9.1 0 1 0 -18.2 0zM1424.17 420.9 a9.1 9.1 0 1 0 18.2 0 a9.1 9.1 0 1 0 -18.2 0zM1345.36 375.4 a9.1 9.1 0 1 0 18.2 0 a9.1 9.1 0 1 0 -18.2 0zM1345.36 284.4 a9.1 9.1 0 1 0 18.2 0 a9.1 9.1 0 1 0 -18.2 0zM1502.98 648.4 a9.1 9.1 0 1 0 18.2 0 a9.1 9.1 0 1 0 -18.2 0zM1581.79 693.9 a9.1 9.1 0 1 0 18.2 0 a9.1 9.1 0 1 0 -18.2 0zM1581.79 784.9 a9.1 9.1 0 1 0 18.2 0 a9.1 9.1 0 1 0 -18.2 0zM1502.98 830.4 a9.1 9.1 0 1 0 18.2 0 a9.1 9.1 0 1 0 -18.2 0zM1502.98 921.4 a9.1 9.1 0 1 0 18.2 0 a9.1 9.1 0 1 0 -18.2 0zM1581.79 966.9 a9.1 9.1 0 1 0 18.2 0 a9.1 9.1 0 1 0 -18.2 0zM1581.79 1057.9 a9.1 9.1 0 1 0 18.2 0 a9.1 9.1 0 1 0 -18.2 0zM1502.98 1103.4 a9.1 9.1 0 1 0 18.2 0 a9.1 9.1 0 1 0 -18.2 0zM1660.6 102.4 a9.1 9.1 0 1 0 18.2 0 a9.1 9.1 0 1 0 -18.2 0zM1739.41 147.9 a9.1 9.1 0 1 0 18.2 0 a9.1 9.1 0 1 0 -18.2 0zM1739.41 238.9 a9.1 9.1 0 1 0 18.2 0 a9.1 9.1 0 1 0 -18.2 0zM1660.6 284.4 a9.1 9.1 0 1 0 18.2 0 a9.1 9.1 0 1 0 -18.2 0zM1581.79 238.9 a9.1 9.1 0 1 0 18.2 0 a9.1 9.1 0 1 0 -18.2 0zM1581.79 147.9 a9.1 9.1 0 1 0 18.2 0 a9.1 9.1 0 1 0 -18.2 0zM1660.6 1103.4 a9.1 9.1 0 1 0 18.2 0 a9.1 9.1 0 1 0 -18.2 0zM1660.6 1194.4 a9.1 9.1 0 1 0 18.2 0 a9.1 9.1 0 1 0 -18.2 0zM1581.79 1239.9 a9.1 9.1 0 1 0 18.2 0 a9.1 9.1 0 1 0 -18.2 0zM1502.98 1194.4 a9.1 9.1 0 1 0 18.2 0 a9.1 9.1 0 1 0 -18.2 0zM1739.41 -34.1 a9.1 9.1 0 1 0 18.2 0 a9.1 9.1 0 1 0 -18.2 0zM1818.22 11.4 a9.1 9.1 0 1 0 18.2 0 a9.1 9.1 0 1 0 -18.2 0zM1818.22 102.4 a9.1 9.1 0 1 0 18.2 0 a9.1 9.1 0 1 0 -18.2 0zM1660.6 11.4 a9.1 9.1 0 1 0 18.2 0 a9.1 9.1 0 1 0 -18.2 0zM1897.03 147.9 a9.1 9.1 0 1 0 18.2 0 a9.1 9.1 0 1 0 -18.2 0zM1897.03 238.9 a9.1 9.1 0 1 0 18.2 0 a9.1 9.1 0 1 0 -18.2 0zM1818.22 284.4 a9.1 9.1 0 1 0 18.2 0 a9.1 9.1 0 1 0 -18.2 0zM1975.84 102.4 a9.1 9.1 0 1 0 18.2 0 a9.1 9.1 0 1 0 -18.2 0zM2054.65 147.9 a9.1 9.1 0 1 0 18.2 0 a9.1 9.1 0 1 0 -18.2 0zM2054.65 238.9 a9.1 9.1 0 1 0 18.2 0 a9.1 9.1 0 1 0 -18.2 0zM1975.84 284.4 a9.1 9.1 0 1 0 18.2 0 a9.1 9.1 0 1 0 -18.2 0zM1975.84 375.4 a9.1 9.1 0 1 0 18.2 0 a9.1 9.1 0 1 0 -18.2 0zM2054.65 420.9 a9.1 9.1 0 1 0 18.2 0 a9.1 9.1 0 1 0 -18.2 0zM2054.65 511.9 a9.1 9.1 0 1 0 18.2 0 a9.1 9.1 0 1 0 -18.2 0zM1975.84 557.4 a9.1 9.1 0 1 0 18.2 0 a9.1 9.1 0 1 0 -18.2 0zM1897.03 511.9 a9.1 9.1 0 1 0 18.2 0 a9.1 9.1 0 1 0 -18.2 0zM1897.03 420.9 a9.1 9.1 0 1 0 18.2 0 a9.1 9.1 0 1 0 -18.2 0zM1897.03 1057.9 a9.1 9.1 0 1 0 18.2 0 a9.1 9.1 0 1 0 -18.2 0zM1975.84 1103.4 a9.1 9.1 0 1 0 18.2 0 a9.1 9.1 0 1 0 -18.2 0zM1975.84 1194.4 a9.1 9.1 0 1 0 18.2 0 a9.1 9.1 0 1 0 -18.2 0zM1897.03 1239.9 a9.1 9.1 0 1 0 18.2 0 a9.1 9.1 0 1 0 -18.2 0zM1818.22 1194.4 a9.1 9.1 0 1 0 18.2 0 a9.1 9.1 0 1 0 -18.2 0zM1818.22 1103.4 a9.1 9.1 0 1 0 18.2 0 a9.1 9.1 0 1 0 -18.2 0z" fill="url(&quot;#SvgjsLinearGradient4642&quot;)"></path>
        <path d="M48.3 -5.09L158.29 58.41L158.29 185.41L48.3 248.91L-61.69 185.41L-61.69 58.41zM158.29 185.41L268.28 248.91L268.28 375.91L158.29 439.41L48.3 375.91L48.3 248.91zM48.3 756.91L158.29 820.41L158.29 947.41L48.3 1010.91L-61.69 947.41L-61.69 820.41zM158.29 947.41L268.28 1010.91L268.28 1137.91L158.29 1201.41L48.3 1137.91L48.3 1010.91zM268.28 -5.09L378.27 58.41L378.27 185.41L268.28 248.91L158.29 185.41L158.29 58.41zM378.27 185.41L488.25 248.91L488.25 375.91L378.27 439.41L268.28 375.91L268.28 248.91zM378.27 566.41L488.25 629.91L488.25 756.91L378.27 820.41L268.28 756.91L268.28 629.91zM488.25 375.91L598.24 439.41L598.24 566.41L488.25 629.91L378.27 566.41L378.27 439.41zM488.25 1137.91L598.24 1201.41L598.24 1328.41L488.25 1391.91L378.27 1328.41L378.27 1201.41zM818.22 185.41L928.21 248.91L928.21 375.91L818.22 439.41L708.23 375.91L708.23 248.91zM928.21 -5.09L1038.2 58.41L1038.2 185.41L928.21 248.91L818.22 185.41L818.22 58.41zM1038.2 185.41L1148.18 248.91L1148.18 375.91L1038.2 439.41L928.21 375.91L928.21 248.91zM928.21 1137.91L1038.2 1201.41L1038.2 1328.41L928.21 1391.91L818.22 1328.41L818.22 1201.41zM1148.18 -5.09L1258.17 58.41L1258.17 185.41L1148.18 248.91L1038.2 185.41L1038.2 58.41zM1258.17 566.41L1368.16 629.91L1368.16 756.91L1258.17 820.41L1148.18 756.91L1148.18 629.91zM1148.18 1137.91L1258.17 1201.41L1258.17 1328.41L1148.18 1391.91L1038.2 1328.41L1038.2 1201.41zM1368.16 375.91L1478.15 439.41L1478.15 566.41L1368.16 629.91L1258.17 566.41L1258.17 439.41zM1368.16 1137.91L1478.15 1201.41L1478.15 1328.41L1368.16 1391.91L1258.17 1328.41L1258.17 1201.41zM1698.13 185.41L1808.11 248.91L1808.11 375.91L1698.13 439.41L1588.14 375.91L1588.14 248.91zM1698.13 566.41L1808.11 629.91L1808.11 756.91L1698.13 820.41L1588.14 756.91L1588.14 629.91zM1588.14 1137.91L1698.13 1201.41L1698.13 1328.41L1588.14 1391.91L1478.15 1328.41L1478.15 1201.41z" stroke="url(&quot;#SvgjsLinearGradient4643&quot;)" stroke-width="2"></path>
    </g>
    <defs>
        <mask id="SvgjsMask4640">
            <rect width="1920" height="1080" fill="#ffffff"></rect>
        </mask>
        <linearGradient x1="10.94%" y1="-19.44%" x2="89.06%" y2="119.44%" gradientUnits="userSpaceOnUse" id="SvgjsLinearGradient4641">
            <stop stop-color="rgba(43, 7, 44, 1)" offset="0"></stop>
            <stop stop-color="rgba(3, 89, 201, 1)" offset="1"></stop>
        </linearGradient>
        <linearGradient x1="960" y1="1080" x2="960" y2="0" gradientUnits="userSpaceOnUse" id="SvgjsLinearGradient4642">
            <stop stop-color="rgba(158, 0, 129, 1)" offset="0"></stop>
            <stop stop-color="rgba(10, 64, 117, 1)" offset="1"></stop>
        </linearGradient>
        <linearGradient x1="1709.9520000000002" y1="-209.95200000000003" x2="210.048" y2="1289.952" gradientUnits="userSpaceOnUse" id="SvgjsLinearGradient4643">
            <stop stop-color="rgba(167, 51, 159, 1)" offset="0"></stop>
            <stop stop-color="rgba(38, 127, 201, 1)" offset="1"></stop>
        </linearGradient>
    </defs>
</svg>